<svg id="Camada_1" data-name="Camada 1" xmlns="http://www.w3.org/2000/svg" viewBox="0 0 239 475.82"><defs><style>.cls-1{fill:none;stroke:#000;}</style></defs><path class="cls-1" d="M153.3,126.59V19.37H202q17.46,0,30.79,6.66a50.85,50.85,0,0,1,20.83,18.69q7.5,12,7.5,28.26t-7.5,28.26a50.69,50.69,0,0,1-20.83,18.68q-13.32,6.67-30.79,6.67Zm25-20.22h22.52a40.15,40.15,0,0,0,18.61-4.06,29.27,29.27,0,0,0,12.25-11.64A34.82,34.82,0,0,0,236,73a34.76,34.76,0,0,0-4.37-17.77,29.4,29.4,0,0,0-12.25-11.56,40.15,40.15,0,0,0-18.61-4.06H178.26Z" transform="translate(-138.18 -18.87)"/><path class="cls-1" d="M279.81,126.59V19.37h46.41q14.4,0,24.81,4.67a36.36,36.36,0,0,1,16.09,13.4q5.65,8.75,5.66,20.68,0,12.1-5.66,20.76A35.53,35.53,0,0,1,351,92.05q-10.41,4.52-24.81,4.52H293.44l11.34-10.72v40.74Zm25-38L293.44,76.81h31.4q11.34,0,17.16-4.9t5.82-13.79q0-8.88-5.82-13.71t-17.16-4.82h-31.4l11.34-11.8Zm43.34,38L321.17,87.68h26.65l26.95,38.91Z" transform="translate(-138.18 -18.87)"/><path class="cls-1" d="M310,310.39V266.58l5.67,15-47.33-78.42h26.5l36.14,60H315.8l36.3-60h24.2l-47,78.42,5.67-15v43.81Z" transform="translate(-138.18 -18.87)"/><path class="cls-1" d="M139.2,494.19,186.84,387h24.51l48.09,107.22h-26L194,399.53h10l-39.36,94.66Zm24.05-23,6.28-18.84H225l6.43,18.84Z" transform="translate(-138.18 -18.87)"/><path class="cls-1" d="M270.62,494.19V387h20.52l63.26,77.2h-9.95V387H369V494.19H348.43L285.17,417h10v77.2Z" transform="translate(-138.18 -18.87)"/><polygon class="cls-1" points="1.02 475.31 48.66 368.1 73.16 368.1 121.26 475.31 95.22 475.31 85.75 452.56 35.6 452.56 26.45 475.31 1.02 475.31"/><polygon class="cls-1" points="44.17 433.7 61.14 392.56 77.6 433.7 44.17 433.7"/><line class="cls-1" x1="35.6" y1="452.56" x2="85.74" y2="452.56"/><line class="cls-1" x1="44.17" y1="433.7" x2="77.6" y2="433.7"/><polygon class="cls-1" points="0.77 291.52 48.4 184.3 72.91 184.3 121.01 291.52 94.97 291.52 85.49 268.76 35.35 268.76 26.2 291.52 0.77 291.52"/><polygon class="cls-1" points="43.92 249.9 60.89 208.76 77.35 249.9 43.92 249.9"/><line class="cls-1" x1="35.35" y1="268.76" x2="85.49" y2="268.76"/><line class="cls-1" x1="43.92" y1="249.9" x2="77.35" y2="249.9"/></svg>