<svg id="Camada_1" data-name="Camada 1" xmlns="http://www.w3.org/2000/svg" viewBox="0 0 251.55 253.14"><defs><style>.cls-1{fill:#fff;}</style></defs><path class="cls-1" d="M136.78,116.46v-.38l-.25.38Z" transform="translate(-1.51 -2.29)"/><path class="cls-1" d="M234.47,2.29H20.1A18.36,18.36,0,0,0,1.51,20.42V237.29A18.37,18.37,0,0,0,20.1,255.43H234.47a18.37,18.37,0,0,0,18.59-18.14V20.42A18.36,18.36,0,0,0,234.47,2.29ZM77.76,214.19h-38V99.88h38Zm-19-129.91h-.25c-12.75,0-21-8.78-21-19.75,0-11.22,8.5-19.75,21.5-19.75s21,8.53,21.24,19.75C80.26,75.5,72,84.28,58.77,84.28Zm156,129.91h-38V153c0-15.37-5.5-25.85-19.24-25.85-10.5,0-16.75,7.07-19.5,13.9-1,2.44-1.25,5.85-1.25,9.27v63.83h-38s.5-103.58,0-114.31h38v16.2c5.05-7.79,14.08-18.88,34.24-18.88,25,0,43.74,16.34,43.74,51.45Z" transform="translate(-1.51 -2.29)"/></svg>